<?xml version="1.0" standalone="no"?>
<!DOCTYPE svg PUBLIC "-//W3C//DTD SVG 20010904//EN"
 "http://www.w3.org/TR/2001/REC-SVG-20010904/DTD/svg10.dtd">
<svg version="1.0" xmlns="http://www.w3.org/2000/svg"
 width="2048.000000pt" height="2048.000000pt" viewBox="0 0 2048.000000 2048.000000"
 preserveAspectRatio="xMidYMid meet">

<g transform="translate(0.000000,2048.000000) scale(0.100000,-0.100000)"
fill="#000000" stroke="none">
<path d="M13050 17632 c0 -35 43 -142 66 -163 42 -38 109 -148 131 -214 43
-127 45 -136 38 -188 -21 -161 -68 -257 -179 -366 -70 -68 -78 -79 -101 -153
-22 -69 -25 -97 -25 -226 0 -110 5 -171 20 -237 22 -101 54 -201 71 -222 7 -7
9 -16 6 -20 -7 -7 25 -62 57 -99 12 -13 53 -61 91 -105 39 -45 116 -129 173
-186 56 -57 100 -108 97 -113 -3 -5 1 -13 10 -17 19 -11 99 -136 150 -233 21
-41 44 -79 51 -85 7 -5 17 -26 22 -45 6 -19 20 -60 31 -90 20 -52 29 -93 51
-250 12 -83 -11 -213 -52 -288 -15 -29 -28 -57 -28 -62 0 -10 -55 -95 -81
-125 -28 -33 -68 -113 -92 -189 -19 -61 -22 -92 -21 -216 1 -109 5 -156 17
-189 10 -24 17 -55 17 -70 0 -14 7 -39 15 -54 20 -39 33 -121 41 -262 7 -130
23 -186 75 -263 16 -23 29 -45 29 -47 0 -16 65 -95 145 -175 92 -93 95 -97
113 -170 24 -97 32 -110 101 -178 68 -67 92 -85 180 -133 82 -45 92 -59 65
-96 -11 -15 -32 -34 -45 -43 -118 -74 -217 -211 -238 -330 -59 -331 -56 -420
14 -420 26 0 76 51 104 107 11 23 34 62 51 86 16 25 30 50 30 55 0 14 253 272
266 272 6 0 18 8 27 18 9 10 38 29 64 42 27 13 62 33 78 45 89 65 361 175 480
195 28 4 62 13 78 19 39 15 414 9 445 -8 25 -13 21 -31 -8 -31 -11 0 -27 -8
-37 -19 -12 -12 -39 -20 -83 -25 -105 -9 -133 -15 -150 -31 -9 -8 -33 -20 -53
-27 -37 -13 -125 -78 -181 -134 -17 -17 -44 -64 -61 -104 -37 -91 -76 -134
-135 -150 -205 -54 -259 -71 -271 -87 -6 -7 -17 -13 -23 -13 -22 0 -84 -74
-123 -145 -51 -93 -71 -174 -78 -325 -4 -69 -8 -139 -10 -157 -12 -99 -107
-287 -199 -392 -46 -52 -152 -151 -167 -156 -24 -8 -38 -46 -26 -72 18 -40 84
-34 230 21 116 44 191 101 235 178 16 29 52 78 79 109 64 72 74 110 112 395 4
28 14 63 24 77 9 15 17 33 17 41 0 26 102 115 145 128 24 7 99 11 190 10 83
-1 164 3 180 8 17 5 57 14 90 19 70 11 176 42 265 78 8 3 28 7 44 9 16 3 37
10 45 17 23 19 141 69 171 72 14 2 74 11 134 21 104 16 115 16 234 0 157 -22
213 -46 175 -77 -46 -39 -57 -153 -22 -227 l22 -44 -27 -26 c-23 -24 -35 -27
-109 -30 -71 -4 -93 -10 -165 -43 -77 -37 -86 -39 -132 -31 -27 5 -91 7 -142
5 -114 -4 -138 -17 -138 -73 0 -63 16 -88 113 -184 101 -99 122 -116 248 -202
75 -50 188 -159 229 -219 8 -12 30 -42 48 -65 17 -24 32 -48 32 -55 0 -6 -11
-26 -25 -45 -14 -19 -25 -42 -25 -52 0 -16 20 -60 49 -108 5 -8 19 -35 31 -60
11 -25 25 -52 30 -60 4 -8 18 -47 29 -86 19 -61 20 -79 11 -120 -6 -27 -15
-84 -20 -126 -10 -87 -33 -138 -82 -185 -59 -56 -108 -25 -124 78 -4 24 -10
49 -14 54 -4 6 -15 45 -24 87 -10 43 -21 80 -27 83 -5 4 -9 19 -9 34 0 39 -61
97 -140 133 -36 17 -76 40 -90 53 -46 42 -129 95 -172 110 -47 16 -75 47 -98
108 -10 27 -26 46 -49 58 -19 10 -37 22 -40 26 -22 32 -105 85 -133 86 -64 3
-67 -76 -8 -223 29 -73 37 -116 44 -235 11 -171 30 -266 78 -390 11 -27 26
-57 34 -66 8 -8 14 -21 14 -28 0 -7 36 -59 80 -116 44 -57 80 -106 80 -109 0
-4 40 -47 90 -98 97 -99 108 -122 96 -201 -5 -30 -19 -56 -51 -92 -25 -27 -45
-56 -45 -64 0 -8 -19 -33 -43 -56 -24 -22 -61 -70 -82 -105 -34 -55 -84 -126
-188 -264 -42 -56 -52 -64 -89 -70 -36 -7 -38 -5 -54 31 -9 21 -17 49 -17 61
-1 13 -17 40 -34 60 -18 21 -33 42 -33 48 0 5 -12 26 -26 45 -14 19 -35 54
-45 78 -11 25 -30 54 -42 67 -12 12 -35 41 -52 63 -83 114 -133 144 -374 226
-86 29 -163 55 -171 58 -164 59 -205 47 -205 -62 l0 -56 -45 2 c-25 1 -68 7
-95 13 -87 21 -289 3 -399 -34 -76 -26 -146 -21 -192 12 -50 37 -114 108 -114
127 0 28 -80 105 -109 105 -57 0 -74 -42 -54 -134 8 -34 16 -77 20 -96 3 -19
14 -46 25 -59 10 -13 18 -29 18 -35 0 -6 9 -28 20 -49 11 -20 20 -42 20 -48 0
-28 125 -131 199 -165 121 -56 132 -63 211 -143 62 -63 92 -85 170 -123 133
-64 293 -132 374 -157 219 -70 425 -232 571 -449 87 -130 92 -164 45 -292 -18
-47 -39 -107 -47 -135 -8 -27 -18 -59 -23 -70 -11 -26 -34 -131 -60 -275 -12
-63 -30 -144 -40 -180 -55 -193 -65 -317 -37 -476 26 -145 38 -224 48 -323 9
-77 18 -109 51 -179 47 -96 88 -141 165 -178 64 -32 189 -48 319 -41 82 4 97
8 172 47 48 25 108 67 143 101 38 36 93 74 146 101 78 39 191 122 192 141 1 4
56 62 124 130 67 68 135 143 151 167 17 25 35 50 42 55 26 23 130 196 169 282
23 50 52 106 66 125 13 18 37 51 52 74 37 55 59 65 192 90 92 18 270 11 314
-12 14 -8 36 -14 47 -14 28 0 195 -61 291 -106 70 -32 159 -87 173 -106 11
-15 105 -78 116 -78 6 0 19 -9 28 -19 17 -18 160 -93 241 -125 22 -9 89 -23
148 -31 85 -11 123 -22 180 -51 215 -107 348 -124 487 -61 55 24 175 65 260
87 74 19 94 32 101 68 4 18 2 38 -5 46 -21 27 -100 39 -276 41 -96 1 -185 6
-197 11 -32 13 -123 103 -123 122 0 8 -9 33 -19 56 -11 23 -32 68 -46 101 -15
33 -34 76 -43 95 -8 19 -57 76 -107 125 -101 100 -128 140 -105 155 8 6 22 10
31 10 9 0 33 7 53 15 31 13 36 20 36 50 0 69 -13 82 -140 131 -25 10 -67 30
-93 46 -26 15 -50 28 -53 28 -3 0 -15 9 -27 21 -12 11 -35 28 -52 36 -16 9
-52 33 -78 54 -26 21 -62 41 -80 45 -17 3 -41 12 -52 20 -23 15 -111 29 -277
45 -99 10 -124 9 -165 -4 -71 -22 -214 -47 -248 -43 -16 2 -31 8 -33 14 -6 18
48 158 74 192 6 8 21 49 34 90 13 41 36 109 51 150 15 41 37 111 49 155 12 44
25 89 30 100 22 51 52 161 75 275 13 69 31 151 40 183 14 55 40 107 54 107 3
0 23 16 45 35 21 19 45 35 53 35 8 0 27 6 41 14 15 8 72 36 126 62 55 27 131
69 170 94 39 25 83 52 99 60 34 17 157 148 234 250 21 27 63 111 63 126 0 5
18 44 41 88 22 43 44 102 50 130 11 55 67 225 79 241 29 39 100 187 100 208 0
30 -35 67 -62 67 -45 0 -165 -73 -233 -142 -73 -74 -167 -127 -250 -142 -22
-4 -46 -13 -53 -18 -7 -6 -62 -14 -121 -18 -123 -7 -122 -6 -229 -107 l-72
-69 -10 36 c-6 21 -14 104 -20 186 -19 294 -23 330 -42 434 -11 58 -23 130
-28 160 -4 30 -15 84 -25 120 -9 36 -23 90 -31 120 -8 30 -21 78 -29 105 -35
123 -76 296 -86 365 -19 123 -5 459 25 602 14 65 30 127 36 138 6 12 18 47 26
78 8 31 22 71 30 87 9 17 25 55 36 85 24 61 82 156 121 194 9 10 17 23 17 30
0 7 9 21 20 31 11 10 20 23 20 29 1 17 100 131 143 165 21 16 52 46 68 67 31
40 159 143 249 201 30 19 73 47 94 62 22 14 51 34 65 44 23 15 57 32 116 56
11 5 34 14 50 21 37 16 107 26 290 40 259 20 276 23 395 91 77 43 125 92 162
168 18 36 41 74 51 85 24 28 23 116 -2 147 -16 20 -23 22 -47 14 -16 -6 -39
-26 -51 -45 -30 -45 -114 -130 -129 -130 -7 0 -14 -6 -17 -12 -3 -7 -29 -28
-59 -46 -52 -31 -58 -32 -168 -33 l-115 -2 -80 40 c-155 77 -280 103 -389 80
-46 -10 -101 -14 -166 -10 -115 5 -186 -11 -249 -59 -22 -18 -41 -35 -41 -39
0 -4 -26 -20 -57 -35 -58 -29 -236 -195 -277 -259 -48 -74 -92 -115 -155 -145
-36 -18 -74 -42 -86 -54 -54 -61 -87 -110 -131 -202 -27 -54 -51 -101 -54
-104 -19 -18 -71 -235 -85 -355 -3 -33 -12 -68 -20 -78 -12 -17 -15 -16 -41
11 -16 16 -38 42 -50 58 -28 39 -130 253 -150 317 -10 29 -25 75 -34 102 -24
69 -57 181 -69 235 -16 64 -29 391 -20 480 14 145 89 309 184 405 34 34 64 67
66 72 2 5 27 24 54 43 28 19 52 37 55 41 3 3 23 16 45 29 62 37 111 78 189
158 100 103 129 172 130 308 1 79 -14 108 -59 116 -31 6 -54 -15 -93 -84 -35
-60 -66 -86 -133 -111 -40 -15 -76 -17 -241 -15 l-193 2 -74 -59 c-112 -91
-144 -115 -153 -115 -12 0 -81 -69 -101 -102 -9 -14 -30 -36 -46 -47 l-30 -22
-14 28 c-8 15 -17 62 -21 104 -8 90 -45 216 -79 267 -13 21 -27 47 -31 59 -4
11 -59 61 -124 109 -102 78 -175 146 -304 285 -18 20 -49 44 -68 54 -61 31
-150 88 -150 96 0 4 -9 11 -21 14 -12 4 -29 14 -38 23 -9 10 -34 32 -55 50
-27 24 -54 68 -98 160 l-61 127 1 104 c1 58 5 116 11 130 30 80 36 194 16 301
-11 60 -87 226 -121 266 -29 33 -38 38 -81 38 -42 1 -48 -2 -57 -25 -7 -21 -3
-39 23 -91 17 -36 42 -103 56 -149 21 -73 25 -104 25 -242 0 -107 -5 -179 -15
-220 -56 -234 -58 -249 -51 -435 7 -173 17 -240 58 -392 42 -155 48 -175 73
-211 13 -21 27 -49 31 -64 4 -15 13 -29 20 -32 8 -3 14 -11 14 -19 0 -24 132
-256 201 -354 39 -55 61 -88 128 -190 20 -30 42 -61 48 -68 7 -7 13 -19 13
-26 0 -7 16 -29 35 -49 19 -20 35 -40 35 -45 0 -5 9 -17 20 -27 11 -10 20 -22
20 -27 0 -5 12 -27 27 -51 15 -23 35 -64 45 -91 10 -28 31 -64 47 -80 25 -27
105 -150 151 -234 8 -15 33 -58 54 -97 21 -38 49 -86 62 -105 13 -20 26 -49
30 -66 5 -27 3 -32 -19 -38 -26 -6 -90 15 -117 39 -18 16 -73 46 -188 105 -46
23 -107 57 -135 76 -29 19 -72 44 -97 55 -144 67 -221 107 -270 140 -30 20
-78 49 -107 65 -121 68 -250 148 -273 170 -14 12 -58 51 -98 85 -40 33 -77 70
-83 81 -6 11 -13 17 -17 14 -3 -4 -11 2 -16 13 -6 10 -75 85 -153 165 -79 80
-143 153 -143 162 0 9 -13 31 -29 50 -16 18 -46 63 -67 101 -21 37 -44 73 -50
78 -18 14 -84 139 -84 157 0 15 -38 100 -150 333 -31 66 -63 136 -70 155 -8
19 -24 51 -37 70 -13 19 -23 40 -23 46 0 7 -16 36 -36 65 -19 29 -60 98 -91
154 -30 55 -67 116 -81 135 -15 19 -44 61 -65 92 -21 32 -54 71 -74 87 -40 33
-153 169 -153 184 0 6 -9 20 -19 31 -34 37 -111 195 -126 259 -8 34 -22 84
-30 112 -12 39 -14 83 -10 215 9 258 27 342 163 735 23 64 42 184 32 190 -4 2
-7 26 -8 52 -1 73 -14 95 -109 194 -113 117 -283 274 -283 261z"/>
<path d="M4850 15493 c-88 -15 -241 -76 -365 -146 -151 -86 -375 -285 -504
-449 -34 -43 -87 -104 -119 -135 -32 -32 -83 -92 -113 -133 -30 -41 -61 -82
-69 -91 -53 -58 -80 -91 -80 -100 0 -5 -18 -39 -39 -74 -22 -36 -50 -95 -63
-133 -24 -73 -88 -165 -146 -212 -115 -92 -153 -120 -161 -120 -6 0 -38 -16
-72 -37 -34 -20 -83 -42 -108 -50 -24 -7 -52 -19 -60 -27 -44 -38 -342 -46
-491 -13 -113 25 -255 73 -332 112 -76 39 -132 61 -193 76 -22 6 -47 16 -55
24 -12 11 -63 15 -205 19 -179 5 -271 18 -323 45 -9 5 -49 14 -89 20 -65 10
-78 9 -130 -10 -32 -12 -67 -30 -79 -40 -11 -11 -30 -19 -41 -19 -11 0 -26 -7
-33 -15 -7 -8 -16 -15 -21 -15 -16 0 -104 -72 -122 -100 -23 -36 -10 -73 33
-95 27 -14 42 -15 105 -5 79 12 136 8 224 -17 82 -23 102 -48 211 -262 14 -26
51 -66 95 -103 79 -64 109 -112 84 -132 -54 -41 -67 -98 -30 -129 20 -18 97
-37 148 -37 40 0 97 -17 148 -44 17 -9 36 -16 43 -16 7 0 25 -11 40 -25 15
-14 38 -28 52 -31 14 -3 41 -12 60 -20 75 -34 325 -48 410 -25 25 7 81 23 125
36 44 13 114 26 156 28 47 3 94 13 122 26 25 12 52 21 59 21 7 1 36 17 63 36
112 79 125 86 141 80 13 -5 15 -17 11 -69 -11 -147 -27 -296 -36 -352 -34
-199 -46 -635 -22 -790 6 -38 11 -99 11 -135 0 -36 5 -83 10 -105 9 -40 22
-127 41 -279 5 -43 16 -90 23 -105 15 -28 82 -299 91 -371 4 -25 11 -58 16
-75 5 -16 10 -64 11 -105 3 -110 -44 -223 -143 -338 -20 -23 -63 -82 -95 -130
-32 -48 -64 -91 -70 -97 -32 -26 -91 -118 -154 -238 -73 -140 -115 -249 -130
-332 -4 -27 -15 -90 -24 -140 -24 -138 -18 -314 16 -470 6 -27 12 -126 13
-220 3 -209 11 -234 78 -235 24 0 50 22 148 122 135 139 177 196 203 283 34
112 42 130 62 140 54 28 104 63 149 107 28 26 55 48 61 48 16 0 49 39 80 95
28 49 29 55 36 255 8 242 22 330 52 330 19 0 36 -22 36 -46 0 -12 13 -38 30
-59 16 -20 38 -60 49 -88 21 -56 118 -249 130 -257 15 -11 54 -87 62 -120 18
-77 -30 -301 -87 -413 -9 -17 -25 -55 -35 -85 -11 -31 -25 -63 -33 -71 -7 -9
-29 -45 -47 -81 -36 -71 -89 -148 -139 -201 -18 -19 -40 -47 -50 -63 -25 -39
-132 -149 -178 -183 -20 -15 -54 -42 -74 -60 -21 -18 -59 -44 -85 -58 -93 -51
-145 -83 -152 -92 -3 -6 -28 -22 -56 -37 -27 -15 -80 -44 -117 -65 -71 -41
-129 -61 -243 -85 -38 -8 -97 -21 -130 -30 -45 -13 -132 -19 -350 -25 -159 -5
-305 -13 -323 -19 -176 -58 -312 -208 -312 -346 0 -46 22 -76 54 -76 10 0 45
25 78 55 33 31 72 63 87 72 14 9 37 27 51 39 55 48 194 73 300 54 64 -12 158
-52 255 -110 123 -73 149 -81 310 -89 83 -5 164 -14 180 -20 37 -15 168 -6
240 16 159 50 331 162 496 326 44 43 77 67 91 67 26 0 186 102 233 147 75 74
132 139 150 174 128 245 195 401 195 452 0 9 5 19 11 22 17 11 47 -24 63 -74
26 -83 75 -212 85 -225 5 -6 15 -32 21 -56 5 -25 19 -76 31 -115 26 -89 28
-112 38 -395 8 -235 0 -352 -31 -460 -22 -78 -109 -239 -151 -279 -141 -137
-181 -171 -202 -171 -12 0 -28 -7 -35 -15 -7 -8 -17 -15 -23 -15 -16 0 -196
-88 -242 -118 -52 -35 -155 -120 -180 -151 -50 -62 -72 -170 -60 -305 7 -88
16 -110 50 -120 26 -8 75 36 75 68 0 34 35 108 63 134 13 13 48 32 76 43 56
21 65 20 201 -8 41 -9 125 -16 185 -17 106 0 113 1 195 38 47 20 92 43 100 50
8 7 44 29 80 49 36 19 89 61 118 91 83 88 94 79 103 -79 10 -176 26 -261 61
-324 43 -77 122 -176 162 -200 57 -36 142 -136 195 -231 10 -20 77 -87 148
-150 166 -147 190 -175 252 -295 62 -118 78 -173 87 -303 6 -83 4 -108 -14
-162 -53 -169 -61 -202 -67 -295 -8 -121 9 -205 63 -314 37 -73 91 -131 123
-131 9 0 28 9 43 21 38 30 36 91 -4 160 -45 76 -62 171 -56 307 5 108 25 222
45 259 5 10 22 59 37 108 15 50 31 97 35 105 45 92 86 505 68 695 -13 135 -36
239 -68 305 -15 30 -34 71 -41 90 -20 54 -99 240 -121 286 -10 23 -19 46 -19
51 0 6 -8 21 -19 34 -10 13 -46 77 -80 143 -34 65 -68 128 -76 140 -8 11 -15
31 -15 43 0 13 -11 29 -25 39 -14 9 -25 25 -25 35 0 19 -12 49 -61 155 -16 34
-29 66 -29 71 0 8 -61 157 -109 267 -12 26 -30 61 -41 76 -25 35 -80 177 -80
207 0 12 -7 26 -15 30 -15 9 -41 85 -52 150 -6 38 17 54 48 35 10 -7 25 -12
32 -12 8 0 45 -24 83 -52 38 -29 82 -60 97 -68 16 -8 65 -44 110 -80 98 -78
233 -170 250 -170 7 -1 32 -21 57 -46 25 -25 70 -61 100 -81 71 -48 294 -238
385 -328 197 -198 247 -259 397 -484 21 -32 68 -127 68 -138 0 -5 18 -40 41
-78 22 -39 48 -90 56 -115 8 -25 33 -85 55 -135 22 -49 46 -104 54 -122 8 -17
14 -40 14 -50 0 -11 7 -28 15 -39 8 -10 15 -30 15 -44 0 -14 6 -36 13 -50 8
-14 35 -93 60 -175 26 -83 54 -170 63 -195 9 -25 19 -64 23 -87 4 -24 15 -58
24 -75 51 -107 97 -208 97 -213 0 -18 97 -205 126 -244 19 -24 34 -50 34 -57
0 -7 10 -24 23 -38 50 -57 67 -78 67 -85 0 -5 13 -25 29 -45 16 -20 39 -67 51
-103 12 -36 36 -96 54 -132 19 -36 43 -109 55 -161 12 -52 27 -114 33 -137 12
-47 4 -242 -13 -333 -11 -58 -33 -132 -49 -165 -5 -11 -30 -69 -54 -130 -51
-128 -76 -183 -112 -245 -38 -65 -110 -259 -130 -347 -12 -55 -15 -96 -10
-152 8 -86 13 -100 80 -231 27 -52 56 -110 64 -127 9 -18 21 -33 27 -33 6 0
24 -13 40 -30 37 -38 93 -50 112 -25 29 41 5 114 -86 255 -68 106 -74 125 -78
245 -4 97 -2 116 17 158 24 53 79 122 199 247 99 102 190 236 209 305 35 128
46 488 20 620 -18 93 -58 199 -97 259 -15 22 -46 70 -69 106 -44 70 -58 88
-127 164 -25 27 -45 55 -45 62 0 6 -6 17 -14 23 -8 6 -24 38 -36 71 -12 33
-26 60 -30 60 -4 0 -15 17 -26 38 -10 20 -25 45 -33 54 -29 37 -115 261 -138
361 -20 89 -13 356 11 424 24 64 73 151 130 228 209 280 231 315 248 390 43
190 41 337 -9 548 -15 64 -14 74 2 144 25 106 17 240 -19 307 -14 27 -26 54
-26 61 0 7 -13 31 -30 53 -16 23 -30 44 -30 47 0 10 -122 170 -136 178 -24 14
-35 47 -44 130 -15 145 -108 302 -202 341 -21 8 -38 19 -38 23 0 4 -16 25 -35
46 -20 22 -35 49 -35 62 0 31 62 94 99 101 15 3 54 28 86 56 96 81 145 162
190 309 14 46 30 98 36 114 17 47 24 218 10 243 -21 40 -57 28 -124 -41 -34
-34 -78 -82 -97 -106 -76 -95 -95 -113 -167 -161 -41 -27 -76 -50 -78 -50 -2
0 -48 -26 -102 -57 -208 -121 -326 -169 -528 -213 -55 -12 -125 -28 -155 -35
-65 -17 -316 -27 -415 -17 -60 6 -70 10 -70 26 0 25 12 30 125 57 91 21 167
52 222 90 14 11 33 19 42 19 9 0 19 6 22 14 3 8 23 26 44 40 35 23 120 134
120 156 0 9 45 40 83 57 16 7 61 15 100 18 75 6 197 33 258 59 41 17 116 92
157 156 35 56 82 148 82 162 0 5 6 24 14 41 8 18 24 75 36 127 57 249 49 225
112 360 18 39 49 83 78 110 85 81 178 160 188 160 5 0 15 7 22 15 7 9 27 22
45 31 19 9 39 28 46 46 11 27 10 32 -5 44 -59 43 -221 18 -406 -64 -70 -31
-113 -69 -187 -167 -88 -115 -95 -132 -149 -335 -35 -132 -58 -176 -132 -247
-58 -55 -71 -62 -128 -73 -45 -9 -89 -9 -161 -2 -54 5 -193 9 -310 7 -195 -3
-217 -5 -290 -29 -184 -59 -252 -69 -478 -68 -189 1 -215 3 -255 21 -25 11
-53 21 -63 21 -9 0 -47 14 -84 30 -36 16 -72 30 -79 30 -7 0 -17 6 -21 13 -4
7 -22 22 -39 33 -96 59 -149 101 -236 187 -53 52 -103 108 -111 124 -19 37
-39 146 -31 167 11 29 38 36 70 19 43 -23 171 -63 200 -63 28 0 64 -18 128
-62 21 -16 45 -28 53 -28 7 0 24 -6 36 -14 12 -8 60 -20 107 -27 182 -27 356
1 435 71 17 15 50 35 75 44 25 10 52 24 60 31 8 7 26 16 40 20 28 8 104 67
137 106 30 35 144 89 189 89 42 0 111 35 119 61 16 49 -32 99 -93 99 -17 0
-33 6 -35 13 -4 9 -6 9 -6 0 -1 -8 -15 -13 -35 -13 -18 0 -51 -6 -72 -14 -22
-7 -69 -16 -105 -20 -55 -5 -70 -3 -90 12 -13 10 -39 24 -57 31 -18 8 -43 26
-56 41 -13 16 -54 43 -92 60 -38 18 -82 45 -99 60 -60 55 -179 130 -208 130
-16 0 -79 12 -140 26 -62 14 -135 30 -164 34 -74 12 -190 70 -247 123 -49 46
-55 69 -20 76 27 5 34 19 34 69 0 63 -58 155 -127 199 -29 18 -56 39 -60 45
-4 7 -21 20 -38 30 -40 22 -59 108 -40 181 13 50 54 103 92 118 12 4 25 20 29
34 8 34 -3 90 -21 105 -19 16 -19 67 0 138 9 32 21 75 27 97 23 88 92 293 114
343 13 29 24 56 24 60 0 4 15 38 34 77 19 38 48 102 65 140 46 102 55 118 68
122 12 4 73 -116 73 -144 0 -24 42 -123 52 -123 4 0 14 -15 22 -32 8 -18 37
-60 64 -93 28 -33 77 -98 108 -144 32 -47 71 -96 86 -110 15 -13 28 -30 28
-37 0 -8 11 -21 24 -29 13 -9 27 -26 30 -39 7 -27 103 -100 154 -116 20 -7 87
-29 147 -50 61 -21 136 -43 168 -50 39 -8 72 -23 105 -49 61 -49 85 -61 116
-61 34 0 53 33 54 98 3 85 10 92 100 93 163 1 315 45 388 110 14 13 36 19 72
19 91 0 193 -81 288 -227 28 -44 39 -53 64 -53 20 0 33 7 42 23 18 34 15 221
-5 280 -10 26 -17 60 -17 75 -1 65 -160 213 -251 233 -107 24 -190 63 -235
111 -43 47 -90 78 -116 78 -7 1 -31 9 -53 20 -22 11 -49 19 -60 20 -12 0 -25
4 -31 10 -11 11 -114 38 -189 50 -127 21 -288 82 -364 138 -128 95 -216 190
-293 317 -90 151 -130 241 -164 374 -43 166 -47 249 -17 311 12 25 24 61 28
80 4 19 18 62 32 95 32 80 82 279 98 390 8 50 23 124 35 165 58 202 79 371 87
703 5 212 -8 294 -56 357 -15 19 -36 49 -46 65 -9 17 -37 46 -61 65 -24 19
-53 43 -65 53 -55 44 -218 69 -329 50z"/>
<path d="M8277 14265 c-21 -91 -40 -172 -43 -180 -7 -17 31 -38 56 -30 10 3
32 29 48 58 69 121 163 197 244 197 26 0 48 -4 48 -9 0 -14 -158 -678 -172
-721 -16 -54 -35 -68 -95 -76 -46 -5 -56 -10 -64 -32 -5 -13 -7 -32 -4 -42 5
-15 31 -16 288 -16 155 1 288 5 295 9 6 5 12 22 12 38 0 31 -4 34 -63 44 -23
4 -43 15 -52 28 -13 21 -8 53 71 382 47 198 90 367 95 377 12 23 76 24 108 2
32 -23 78 -125 87 -190 5 -45 10 -55 29 -60 51 -13 58 2 89 195 16 99 28 183
25 185 -2 2 -53 -1 -114 -6 -113 -10 -780 -4 -825 7 -25 6 -25 6 -63 -160z"/>
<path d="M9368 14397 c-18 -35 -5 -60 39 -74 54 -18 48 3 153 -508 45 -220 87
-406 92 -412 6 -7 28 -13 49 -13 37 0 41 4 165 158 70 86 132 163 139 170 9
10 19 -21 44 -150 18 -90 38 -166 44 -170 7 -4 28 -8 48 -8 37 0 37 1 369 440
182 242 346 451 363 464 18 13 47 27 65 31 33 7 48 33 40 71 -3 16 -18 18
-161 17 -169 0 -177 -2 -177 -50 0 -17 10 -27 35 -37 38 -16 41 -25 24 -59
-16 -30 -368 -515 -379 -522 -5 -3 -12 4 -15 17 -3 13 -16 70 -29 128 -14 57
-22 109 -18 115 3 5 48 63 99 127 105 131 152 173 215 191 41 12 43 15 43 52
l0 38 -151 0 c-83 0 -156 -3 -162 -7 -7 -4 -12 -21 -12 -37 0 -22 7 -32 25
-41 29 -13 30 -22 9 -63 -17 -33 -95 -137 -100 -133 -8 9 -33 159 -28 172 3 9
17 19 31 22 28 7 48 48 34 71 -7 14 -37 16 -211 15 -215 0 -220 -1 -220 -49 0
-15 10 -28 30 -38 17 -9 36 -28 41 -43 19 -50 89 -414 81 -426 -4 -7 -27 -38
-52 -70 -38 -50 -45 -56 -52 -40 -12 30 -117 495 -120 534 -2 28 1 37 20 45
23 10 36 40 30 71 -3 15 -23 17 -216 18 -197 1 -215 0 -224 -17z"/>
<path d="M11093 14393 c-23 -35 -13 -57 32 -68 55 -14 65 -22 65 -52 0 -28
-152 -670 -169 -715 -12 -31 -34 -45 -88 -56 -40 -8 -64 -39 -56 -71 4 -16 26
-17 273 -17 185 1 273 5 280 12 6 6 10 24 8 40 -3 24 -9 29 -43 36 -50 11 -59
20 -57 60 2 41 148 658 166 703 16 38 34 50 89 60 21 4 42 16 47 26 12 21 13
59 3 60 -5 0 -127 1 -272 2 -262 2 -264 2 -278 -20z"/>
<path d="M12548 14403 c-5 -6 -8 -24 -6 -40 3 -23 10 -29 51 -41 73 -20 74
-26 32 -257 -20 -110 -39 -209 -43 -219 -7 -15 -48 37 -213 270 l-204 289
-159 3 c-172 3 -176 2 -176 -50 0 -23 6 -29 40 -38 46 -12 76 -40 83 -78 7
-38 -130 -661 -152 -692 -10 -14 -38 -31 -62 -39 -69 -22 -74 -25 -74 -62 l0
-34 178 -1 c167 -1 178 0 188 18 20 37 3 65 -41 72 -64 10 -65 20 -12 295 26
133 50 243 55 244 4 1 112 -144 240 -323 l233 -325 40 -3 c25 -2 45 2 51 10 6
7 48 202 93 432 45 231 85 427 90 436 15 28 45 48 83 55 41 8 62 34 53 68 -5
22 -9 22 -181 22 -124 0 -180 -4 -187 -12z"/>
<path d="M8339 12024 c-6 -7 -9 -25 -7 -40 3 -25 9 -29 53 -39 48 -10 50 -12
53 -45 3 -42 -152 -704 -173 -736 -10 -16 -33 -26 -77 -36 l-63 -13 0 -39 0
-39 273 -1 c254 -1 275 0 284 17 18 34 6 60 -32 70 -70 18 -73 31 -35 194 32
139 38 153 64 146 16 -4 34 -47 91 -219 l72 -214 76 0 c42 0 127 -5 189 -11
127 -12 143 -8 143 42 0 24 -5 30 -37 38 -57 16 -98 45 -115 82 -16 33 -138
330 -138 334 0 1 28 16 63 33 120 60 186 148 187 251 0 102 -62 185 -162 217
-45 14 -104 17 -376 19 -249 1 -325 -1 -333 -11z m538 -108 c27 -23 28 -28 28
-118 0 -83 -3 -98 -27 -140 -21 -34 -41 -53 -80 -72 -58 -29 -118 -35 -118
-12 0 19 78 345 86 357 11 19 82 9 111 -15z"/>
<path d="M9508 12017 c-19 -36 -6 -61 36 -69 47 -10 66 -24 66 -49 0 -26 -159
-695 -172 -724 -11 -25 -39 -40 -91 -50 -27 -5 -38 -14 -48 -37 -8 -21 -9 -32
-1 -40 7 -7 155 -11 457 -12 438 -1 446 -1 450 19 3 11 20 85 40 165 32 134
33 146 18 158 -37 27 -61 15 -89 -43 -32 -68 -106 -144 -168 -173 -58 -28
-225 -32 -246 -7 -10 12 -5 46 26 180 l38 165 53 0 c72 0 103 -29 103 -93 0
-55 19 -75 58 -61 23 8 29 19 40 69 8 33 27 114 42 179 16 66 27 123 24 128
-3 4 -20 8 -39 8 -29 0 -37 -6 -57 -42 -34 -60 -67 -81 -139 -86 -56 -4 -61
-3 -56 14 3 11 17 71 32 134 14 63 31 127 36 142 20 51 114 63 189 26 53 -27
104 -104 114 -172 7 -46 25 -60 66 -49 25 7 27 18 35 173 3 69 6 134 8 144 2
19 -11 19 -406 20 -386 1 -409 0 -419 -17z"/>
<path d="M10791 12033 c-129 -2 -209 -7 -218 -14 -16 -14 -17 -51 -1 -67 7 -7
23 -12 36 -12 37 0 62 -18 62 -45 0 -47 -161 -700 -179 -725 -10 -14 -39 -32
-66 -41 -54 -17 -85 -51 -69 -77 9 -14 47 -15 330 -13 232 2 336 6 381 16 75
17 174 61 239 106 275 189 346 553 148 751 -110 110 -213 129 -663 121z m369
-115 c37 -19 51 -34 75 -83 29 -57 30 -66 29 -180 -1 -101 -5 -133 -27 -200
-61 -185 -180 -305 -321 -321 -70 -8 -106 0 -106 26 0 39 170 733 185 756 21
33 102 33 165 2z"/>
<path d="M10358 9665 c-135 -37 -222 -150 -222 -290 0 -100 29 -150 173 -298
137 -141 156 -171 147 -234 -10 -78 -50 -113 -127 -113 -102 0 -178 95 -197
245 l-7 60 -40 0 -40 0 -26 -155 c-15 -85 -25 -157 -23 -159 11 -12 207 -73
261 -81 76 -12 188 1 267 31 77 28 166 115 189 183 23 66 22 154 -2 216 -24
63 -67 117 -192 240 -105 104 -118 130 -99 202 13 45 57 78 107 78 66 0 129
-86 141 -192 6 -48 11 -62 27 -68 38 -14 63 5 69 52 4 24 13 88 20 143 8 54
12 103 10 107 -3 4 -15 8 -27 8 -12 0 -56 9 -97 20 -87 23 -239 25 -312 5z"/>
<path d="M8334 9633 c-10 -37 5 -55 57 -67 41 -10 44 -13 47 -47 3 -39 -151
-698 -171 -730 -7 -11 -30 -24 -52 -30 -93 -24 -90 -22 -93 -62 l-3 -37 288 2
288 3 3 37 c3 34 1 38 -25 43 -67 14 -78 20 -81 48 -3 23 38 218 64 310 4 13
17 17 60 17 75 0 104 -28 104 -99 0 -45 3 -51 24 -57 48 -12 63 2 75 69 7 34
25 115 42 180 16 65 27 122 24 127 -4 6 -22 10 -40 10 -32 0 -37 -5 -60 -51
-31 -61 -71 -81 -149 -77 l-52 3 36 149 c44 181 52 190 147 184 95 -6 158 -66
186 -178 16 -60 32 -76 69 -67 25 7 25 7 34 173 5 91 7 168 5 170 -2 2 -188 4
-412 4 l-409 0 -6 -27z"/>
<path d="M9378 9634 c-17 -36 -1 -55 53 -68 37 -9 44 -15 47 -39 5 -39 -156
-707 -177 -736 -16 -24 -34 -32 -92 -45 -28 -6 -52 -46 -43 -71 5 -13 45 -15
279 -15 296 0 285 -2 285 56 0 24 -2 25 -76 40 -12 2 -24 14 -27 26 -6 22 143
675 167 733 13 31 46 51 96 57 28 3 57 47 47 71 -6 15 -34 17 -277 17 l-270 0
-12 -26z"/>
<path d="M11048 9634 c-17 -36 -1 -55 53 -68 37 -9 44 -15 47 -37 5 -40 -156
-710 -177 -738 -17 -24 -34 -32 -94 -45 -29 -7 -51 -44 -41 -71 5 -13 44 -15
270 -15 l264 0 10 25 c13 34 3 54 -29 61 -67 14 -68 27 -18 234 l32 135 140 3
c76 1 144 1 151 -2 8 -3 2 -45 -22 -151 -44 -192 -47 -196 -117 -216 -40 -11
-65 -45 -54 -73 6 -14 40 -16 271 -16 286 0 276 -2 276 55 0 24 -6 28 -66 40
-21 4 -34 13 -38 28 -6 24 145 671 170 729 16 36 44 54 94 60 28 3 57 47 47
71 -6 15 -33 17 -265 17 -277 0 -282 -1 -282 -52 0 -22 5 -29 28 -33 72 -16
74 -35 29 -220 l-35 -140 -151 -3 c-83 -1 -151 1 -151 5 0 5 16 75 36 157 39
160 59 196 108 196 33 0 56 25 56 61 l0 29 -265 0 -265 0 -12 -26z"/>
<path d="M10742 7519 c-386 -50 -646 -302 -646 -624 0 -150 53 -249 174 -329
92 -62 147 -78 270 -84 117 -4 239 13 361 51 72 22 74 24 77 57 5 57 52 251
68 281 11 22 24 30 54 35 48 8 63 23 58 61 l-3 28 -250 0 -250 0 0 -40 c0 -38
1 -40 42 -48 65 -13 69 -28 38 -162 -31 -132 -51 -160 -120 -171 -60 -8 -100
3 -141 39 -66 57 -79 96 -79 237 0 110 3 134 28 205 35 104 74 169 141 242
106 114 249 161 311 103 39 -37 55 -73 74 -169 16 -82 18 -86 45 -89 16 -2 34
1 40 8 11 10 67 351 59 360 -15 17 -243 23 -351 9z"/>
<path d="M12116 7509 c-10 -30 -76 -325 -76 -341 0 -21 34 -32 59 -19 10 6 33
35 49 65 37 65 116 146 165 169 45 22 117 23 117 2 0 -25 -171 -727 -182 -749
-15 -28 -24 -33 -77 -41 -58 -9 -71 -20 -71 -60 l0 -32 290 0 290 0 6 23 c11
44 1 58 -46 67 -57 11 -70 22 -70 58 0 31 154 688 170 727 8 18 18 22 51 22
58 0 100 -44 128 -134 12 -37 21 -78 21 -91 0 -12 7 -28 15 -35 17 -14 64 -6
70 13 11 30 62 353 56 359 -3 3 -53 2 -111 -4 -113 -11 -790 -5 -827 7 -15 5
-24 3 -27 -6z"/>
<path d="M9474 7497 c-18 -10 -19 -77 -1 -77 6 0 29 -5 50 -11 35 -9 37 -12
37 -49 0 -59 -157 -701 -179 -730 -12 -16 -34 -28 -65 -35 -50 -11 -69 -31
-64 -68 l3 -22 272 -1 271 -1 11 25 c16 34 5 62 -24 62 -49 0 -75 17 -75 50 0
43 155 692 174 728 16 31 24 35 83 47 40 8 55 26 51 61 l-3 27 -263 1 c-145 0
-270 -3 -278 -7z"/>
<path d="M11403 7483 c-22 -34 -8 -61 35 -69 50 -9 62 -21 62 -58 -1 -17 -38
-186 -84 -375 -91 -375 -90 -374 -164 -387 -50 -9 -62 -21 -62 -59 l0 -32 272
1 272 1 13 24 c17 35 3 53 -49 66 -40 9 -43 12 -46 47 -4 44 151 701 173 734
13 20 68 44 102 44 23 0 48 79 26 80 -5 1 -127 2 -272 3 -262 2 -264 2 -278
-20z"/>
<path d="M8180 7474 c-14 -36 1 -56 52 -69 40 -9 43 -13 46 -45 4 -42 -152
-694 -173 -726 -8 -13 -33 -28 -57 -35 -24 -6 -48 -13 -55 -15 -15 -4 -27 -48
-20 -68 4 -11 64 -13 334 -11 302 3 334 5 403 25 119 34 205 85 296 175 129
127 181 256 171 423 -11 185 -128 318 -316 358 -48 10 -147 14 -369 14 l-302
0 -10 -26z m600 -89 c66 -34 102 -123 101 -252 -1 -220 -98 -419 -242 -498
-42 -22 -70 -30 -131 -33 -62 -4 -79 -2 -83 10 -6 15 160 729 176 760 5 9 17
22 27 28 22 14 114 4 152 -15z"/>
</g>
</svg>
